<?xml version="1.0" encoding="UTF-8" standalone="no"?>
<!DOCTYPE svg PUBLIC "-//W3C//DTD SVG 1.1//EN"
 "http://www.w3.org/Graphics/SVG/1.1/DTD/svg11.dtd">
<!-- Generated by graphviz version 2.28.0 (20111028.1807)
 -->
<!-- Title: G Pages: 1 -->
<svg width="806pt" height="44pt"
 viewBox="0.00 0.00 806.00 44.00" xmlns="http://www.w3.org/2000/svg" xmlns:xlink="http://www.w3.org/1999/xlink">
<g id="graph1" class="graph" transform="scale(1 1) rotate(0) translate(4 40)">
<title>G</title>
<polygon fill="white" stroke="white" points="-4,5 -4,-40 803,-40 803,5 -4,5"/>
<!-- Input -->
<g id="node1" class="node"><title>Input</title>
<ellipse fill="none" stroke="black" cx="32" cy="-18" rx="31.3417" ry="18"/>
<text text-anchor="middle" x="32" y="-12.4" font-family="Times,serif" font-size="14.00">Input</text>
</g>
<!-- CharacterFilters -->
<g id="node3" class="node"><title>CharacterFilters</title>
<ellipse fill="none" stroke="black" cx="207" cy="-18" rx="73.4919" ry="18"/>
<text text-anchor="middle" x="207" y="-12.4" font-family="Times,serif" font-size="14.00">CharacterFilters</text>
</g>
<!-- Input&#45;&gt;CharacterFilters -->
<g id="edge2" class="edge"><title>Input&#45;&gt;CharacterFilters</title>
<path fill="none" stroke="black" d="M63.5307,-18C80.3624,-18 102.149,-18 123.599,-18"/>
<polygon fill="black" stroke="black" points="123.743,-21.5001 133.743,-18 123.743,-14.5001 123.743,-21.5001"/>
<text text-anchor="middle" x="99" y="-20.8" font-family="Times,serif" font-size="14.00">String</text>
</g>
<!-- Tokenizer -->
<g id="node5" class="node"><title>Tokenizer</title>
<ellipse fill="none" stroke="black" cx="400" cy="-18" rx="49.5079" ry="18"/>
<text text-anchor="middle" x="400" y="-12.4" font-family="Times,serif" font-size="14.00">Tokenizer</text>
</g>
<!-- CharacterFilters&#45;&gt;Tokenizer -->
<g id="edge4" class="edge"><title>CharacterFilters&#45;&gt;Tokenizer</title>
<path fill="none" stroke="black" d="M280.481,-18C300.16,-18 321.225,-18 340.056,-18"/>
<polygon fill="black" stroke="black" points="340.265,-21.5001 350.265,-18 340.265,-14.5001 340.265,-21.5001"/>
<text text-anchor="middle" x="315" y="-20.8" font-family="Times,serif" font-size="14.00">String</text>
</g>
<!-- TokenFilters -->
<g id="node7" class="node"><title>TokenFilters</title>
<ellipse fill="none" stroke="black" cx="586" cy="-18" rx="59.926" ry="18"/>
<text text-anchor="middle" x="586" y="-12.4" font-family="Times,serif" font-size="14.00">TokenFilters</text>
</g>
<!-- Tokenizer&#45;&gt;TokenFilters -->
<g id="edge6" class="edge"><title>Tokenizer&#45;&gt;TokenFilters</title>
<path fill="none" stroke="black" d="M449.826,-18C470.046,-18 493.865,-18 515.83,-18"/>
<polygon fill="black" stroke="black" points="516.105,-21.5001 526.105,-18 516.105,-14.5001 516.105,-21.5001"/>
<text text-anchor="middle" x="488" y="-20.8" font-family="Times,serif" font-size="14.00">Tokens</text>
</g>
<!-- Output -->
<g id="node9" class="node"><title>Output</title>
<ellipse fill="none" stroke="black" cx="760" cy="-18" rx="37.7243" ry="18"/>
<text text-anchor="middle" x="760" y="-12.4" font-family="Times,serif" font-size="14.00">Output</text>
</g>
<!-- TokenFilters&#45;&gt;Output -->
<g id="edge8" class="edge"><title>TokenFilters&#45;&gt;Output</title>
<path fill="none" stroke="black" d="M646.193,-18C667.625,-18 691.525,-18 711.79,-18"/>
<polygon fill="black" stroke="black" points="712.024,-21.5001 722.024,-18 712.024,-14.5001 712.024,-21.5001"/>
<text text-anchor="middle" x="684" y="-20.8" font-family="Times,serif" font-size="14.00">Tokens</text>
</g>
</g>
</svg>
