<?xml version="1.0" encoding="UTF-8"?>
<!DOCTYPE svg PUBLIC "-//W3C//DTD SVG 1.1//EN" "http://www.w3.org/Graphics/SVG/1.1/DTD/svg11.dtd">
<svg xmlns="http://www.w3.org/2000/svg" xmlns:xlink="http://www.w3.org/1999/xlink" version="1.1" width="604px" height="592px" viewBox="-0.5 -0.5 604 592"><defs><style xmlns="http://www.w3.org/1999/xhtml" id="MJX-SVG-styles">&#xa;mjx-container[jax="SVG"] {&#xa;  direction: ltr;&#xa;}&#xa;&#xa;mjx-container[jax="SVG"] &gt; svg {&#xa;  overflow: visible;&#xa;  min-height: 1px;&#xa;  min-width: 1px;&#xa;}&#xa;&#xa;mjx-container[jax="SVG"] &gt; svg a {&#xa;  fill: blue;&#xa;  stroke: blue;&#xa;}&#xa;&#xa;mjx-container[jax="SVG"][display="true"] {&#xa;  display: block;&#xa;  text-align: center;&#xa;  margin: 1em 0;&#xa;}&#xa;&#xa;mjx-container[jax="SVG"][display="true"][width="full"] {&#xa;  display: flex;&#xa;}&#xa;&#xa;mjx-container[jax="SVG"][justify="left"] {&#xa;  text-align: left;&#xa;}&#xa;&#xa;mjx-container[jax="SVG"][justify="right"] {&#xa;  text-align: right;&#xa;}&#xa;&#xa;g[data-mml-node="merror"] &gt; g {&#xa;  fill: red;&#xa;  stroke: red;&#xa;}&#xa;&#xa;g[data-mml-node="merror"] &gt; rect[data-background] {&#xa;  fill: yellow;&#xa;  stroke: none;&#xa;}&#xa;&#xa;g[data-mml-node="mtable"] &gt; line[data-line], svg[data-table] &gt; g &gt; line[data-line] {&#xa;  stroke-width: 70px;&#xa;  fill: none;&#xa;}&#xa;&#xa;g[data-mml-node="mtable"] &gt; rect[data-frame], svg[data-table] &gt; g &gt; rect[data-frame] {&#xa;  stroke-width: 70px;&#xa;  fill: none;&#xa;}&#xa;&#xa;g[data-mml-node="mtable"] &gt; .mjx-dashed, svg[data-table] &gt; g &gt; .mjx-dashed {&#xa;  stroke-dasharray: 140;&#xa;}&#xa;&#xa;g[data-mml-node="mtable"] &gt; .mjx-dotted, svg[data-table] &gt; g &gt; .mjx-dotted {&#xa;  stroke-linecap: round;&#xa;  stroke-dasharray: 0,140;&#xa;}&#xa;&#xa;g[data-mml-node="mtable"] &gt; g &gt; svg {&#xa;  overflow: visible;&#xa;}&#xa;&#xa;[jax="SVG"] mjx-tool {&#xa;  display: inline-block;&#xa;  position: relative;&#xa;  width: 0;&#xa;  height: 0;&#xa;}&#xa;&#xa;[jax="SVG"] mjx-tool &gt; mjx-tip {&#xa;  position: absolute;&#xa;  top: 0;&#xa;  left: 0;&#xa;}&#xa;&#xa;mjx-tool &gt; mjx-tip {&#xa;  display: inline-block;&#xa;  padding: .2em;&#xa;  border: 1px solid #888;&#xa;  font-size: 70%;&#xa;  background-color: #F8F8F8;&#xa;  color: black;&#xa;  box-shadow: 2px 2px 5px #AAAAAA;&#xa;}&#xa;&#xa;g[data-mml-node="maction"][data-toggle] {&#xa;  cursor: pointer;&#xa;}&#xa;&#xa;mjx-status {&#xa;  display: block;&#xa;  position: fixed;&#xa;  left: 1em;&#xa;  bottom: 1em;&#xa;  min-width: 25%;&#xa;  padding: .2em .4em;&#xa;  border: 1px solid #888;&#xa;  font-size: 90%;&#xa;  background-color: #F8F8F8;&#xa;  color: black;&#xa;}&#xa;&#xa;foreignObject[data-mjx-xml] {&#xa;  font-family: initial;&#xa;  line-height: normal;&#xa;  overflow: visible;&#xa;}&#xa;&#xa;mjx-container[jax="SVG"] path[data-c], mjx-container[jax="SVG"] use[data-c] {&#xa;  stroke-width: 3;&#xa;}&#xa;</style><style xmlns="http://www.w3.org/1999/xhtml" type="text/css">&#xa;	  	.MathJax svg { shape-rendering: crispEdges; }&#xa;	</style></defs><g><g data-cell-id="MmxlGBjRnrxMOtiVZya0-0"><g data-cell-id="MmxlGBjRnrxMOtiVZya0-1"><g data-cell-id="v9H8ekfJL8ZZ7yBG20ue-0"><g><rect x="328" y="0" width="260" height="520" fill="none" stroke="rgb(0, 0, 0)" stroke-dasharray="3 3" pointer-events="all"/></g></g><g data-cell-id="v9H8ekfJL8ZZ7yBG20ue-1"><g><rect x="18" y="0" width="260" height="520" fill="none" stroke="rgb(0, 0, 0)" stroke-dasharray="3 3" pointer-events="all"/></g></g><g data-cell-id="v9H8ekfJL8ZZ7yBG20ue-2"><g><rect x="50" y="340" width="48" height="160" fill="rgb(255, 255, 255)" stroke="none" pointer-events="none"/><path d="M 50 340 L 98 340 L 98 500 L 50 500 L 50 340" fill="none" stroke="rgb(0, 0, 0)" stroke-width="2" stroke-linecap="square" stroke-miterlimit="10" pointer-events="none"/><path d="M 50 380 L 98 380" fill="none" stroke="rgb(0, 0, 0)" stroke-width="2" stroke-miterlimit="10" pointer-events="none"/><path d="M 50 420 L 98 420" fill="none" stroke="rgb(0, 0, 0)" stroke-width="2" stroke-miterlimit="10" pointer-events="none"/><path d="M 50 460 L 98 460" fill="none" stroke="rgb(0, 0, 0)" stroke-width="2" stroke-miterlimit="10" pointer-events="none"/></g><g data-cell-id="v9H8ekfJL8ZZ7yBG20ue-3"><g/><g data-cell-id="v9H8ekfJL8ZZ7yBG20ue-4"><g><rect x="50" y="340" width="48" height="40" fill="none" stroke="none" pointer-events="all"/><path d="M 50 340 M 98 340 M 98 380 M 50 380" fill="none" stroke="rgb(0, 0, 0)" stroke-width="2" stroke-linecap="square" stroke-miterlimit="10" pointer-events="all"/></g></g></g><g data-cell-id="v9H8ekfJL8ZZ7yBG20ue-5"><g/><g data-cell-id="v9H8ekfJL8ZZ7yBG20ue-6"><g><rect x="50" y="380" width="48" height="40" fill="none" stroke="none" pointer-events="all"/><path d="M 50 380 M 98 380 M 98 420 M 50 420" fill="none" stroke="rgb(0, 0, 0)" stroke-width="2" stroke-linecap="square" stroke-miterlimit="10" pointer-events="all"/></g></g></g><g data-cell-id="v9H8ekfJL8ZZ7yBG20ue-7"><g/><g data-cell-id="v9H8ekfJL8ZZ7yBG20ue-8"><g><rect x="50" y="420" width="48" height="40" fill="none" stroke="none" pointer-events="all"/><path d="M 50 420 M 98 420 M 98 460 M 50 460" fill="none" stroke="rgb(0, 0, 0)" stroke-width="2" stroke-linecap="square" stroke-miterlimit="10" pointer-events="all"/></g></g></g><g data-cell-id="v9H8ekfJL8ZZ7yBG20ue-9"><g/><g data-cell-id="v9H8ekfJL8ZZ7yBG20ue-10"><g><rect x="50" y="460" width="48" height="40" fill="none" stroke="none" pointer-events="all"/><path d="M 50 460 M 98 460 M 98 500 M 50 500" fill="none" stroke="rgb(0, 0, 0)" stroke-width="2" stroke-linecap="square" stroke-miterlimit="10" pointer-events="all"/></g></g></g></g><g data-cell-id="v9H8ekfJL8ZZ7yBG20ue-11"><g><rect x="124" y="340" width="48" height="160" fill="rgb(255, 255, 255)" stroke="none" pointer-events="none"/><path d="M 124 340 L 172 340 L 172 500 L 124 500 L 124 340" fill="none" stroke="rgb(0, 0, 0)" stroke-width="2" stroke-linecap="square" stroke-miterlimit="10" pointer-events="none"/><path d="M 124 380 L 172 380" fill="none" stroke="rgb(0, 0, 0)" stroke-width="2" stroke-miterlimit="10" pointer-events="none"/><path d="M 124 420 L 172 420" fill="none" stroke="rgb(0, 0, 0)" stroke-width="2" stroke-miterlimit="10" pointer-events="none"/><path d="M 124 460 L 172 460" fill="none" stroke="rgb(0, 0, 0)" stroke-width="2" stroke-miterlimit="10" pointer-events="none"/></g><g data-cell-id="v9H8ekfJL8ZZ7yBG20ue-12"><g/><g data-cell-id="v9H8ekfJL8ZZ7yBG20ue-13"><g><rect x="124" y="340" width="48" height="40" fill="none" stroke="none" pointer-events="all"/><path d="M 124 340 M 172 340 M 172 380 M 124 380" fill="none" stroke="rgb(0, 0, 0)" stroke-width="2" stroke-linecap="square" stroke-miterlimit="10" pointer-events="all"/></g></g></g><g data-cell-id="v9H8ekfJL8ZZ7yBG20ue-14"><g/><g data-cell-id="v9H8ekfJL8ZZ7yBG20ue-15"><g><rect x="124" y="380" width="48" height="40" fill="none" stroke="none" pointer-events="all"/><path d="M 124 380 M 172 380 M 172 420 M 124 420" fill="none" stroke="rgb(0, 0, 0)" stroke-width="2" stroke-linecap="square" stroke-miterlimit="10" pointer-events="all"/></g></g></g><g data-cell-id="v9H8ekfJL8ZZ7yBG20ue-16"><g/><g data-cell-id="v9H8ekfJL8ZZ7yBG20ue-17"><g><rect x="124" y="420" width="48" height="40" fill="none" stroke="none" pointer-events="all"/><path d="M 124 420 M 172 420 M 172 460 M 124 460" fill="none" stroke="rgb(0, 0, 0)" stroke-width="2" stroke-linecap="square" stroke-miterlimit="10" pointer-events="all"/></g></g></g><g data-cell-id="v9H8ekfJL8ZZ7yBG20ue-18"><g/><g data-cell-id="v9H8ekfJL8ZZ7yBG20ue-19"><g><rect x="124" y="460" width="48" height="40" fill="none" stroke="none" pointer-events="all"/><path d="M 124 460 M 172 460 M 172 500 M 124 500" fill="none" stroke="rgb(0, 0, 0)" stroke-width="2" stroke-linecap="square" stroke-miterlimit="10" pointer-events="all"/></g></g></g></g><g data-cell-id="v9H8ekfJL8ZZ7yBG20ue-20"><g><rect x="198" y="340" width="48" height="160" fill="rgb(255, 255, 255)" stroke="none" pointer-events="none"/><path d="M 198 340 L 246 340 L 246 500 L 198 500 L 198 340" fill="none" stroke="rgb(0, 0, 0)" stroke-width="2" stroke-linecap="square" stroke-miterlimit="10" pointer-events="none"/><path d="M 198 380 L 246 380" fill="none" stroke="rgb(0, 0, 0)" stroke-width="2" stroke-miterlimit="10" pointer-events="none"/><path d="M 198 420 L 246 420" fill="none" stroke="rgb(0, 0, 0)" stroke-width="2" stroke-miterlimit="10" pointer-events="none"/><path d="M 198 460 L 246 460" fill="none" stroke="rgb(0, 0, 0)" stroke-width="2" stroke-miterlimit="10" pointer-events="none"/></g><g data-cell-id="v9H8ekfJL8ZZ7yBG20ue-21"><g/><g data-cell-id="v9H8ekfJL8ZZ7yBG20ue-22"><g><rect x="198" y="340" width="48" height="40" fill="none" stroke="none" pointer-events="all"/><path d="M 198 340 M 246 340 M 246 380 M 198 380" fill="none" stroke="rgb(0, 0, 0)" stroke-width="2" stroke-linecap="square" stroke-miterlimit="10" pointer-events="all"/></g></g></g><g data-cell-id="v9H8ekfJL8ZZ7yBG20ue-23"><g/><g data-cell-id="v9H8ekfJL8ZZ7yBG20ue-24"><g><rect x="198" y="380" width="48" height="40" fill="none" stroke="none" pointer-events="all"/><path d="M 198 380 M 246 380 M 246 420 M 198 420" fill="none" stroke="rgb(0, 0, 0)" stroke-width="2" stroke-linecap="square" stroke-miterlimit="10" pointer-events="all"/></g></g></g><g data-cell-id="v9H8ekfJL8ZZ7yBG20ue-25"><g/><g data-cell-id="v9H8ekfJL8ZZ7yBG20ue-26"><g><rect x="198" y="420" width="48" height="40" fill="none" stroke="none" pointer-events="all"/><path d="M 198 420 M 246 420 M 246 460 M 198 460" fill="none" stroke="rgb(0, 0, 0)" stroke-width="2" stroke-linecap="square" stroke-miterlimit="10" pointer-events="all"/></g></g></g><g data-cell-id="v9H8ekfJL8ZZ7yBG20ue-27"><g/><g data-cell-id="v9H8ekfJL8ZZ7yBG20ue-28"><g><rect x="198" y="460" width="48" height="40" fill="none" stroke="none" pointer-events="all"/><path d="M 198 460 M 246 460 M 246 500 M 198 500" fill="none" stroke="rgb(0, 0, 0)" stroke-width="2" stroke-linecap="square" stroke-miterlimit="10" pointer-events="all"/></g></g></g></g><g data-cell-id="v9H8ekfJL8ZZ7yBG20ue-29"><g><rect x="54" y="20" width="48" height="160" fill="rgb(255, 255, 255)" stroke="none" pointer-events="none"/><path d="M 54 20 L 102 20 L 102 180 L 54 180 L 54 20" fill="none" stroke="rgb(0, 0, 0)" stroke-width="2" stroke-linecap="square" stroke-miterlimit="10" pointer-events="none"/><path d="M 54 60 L 102 60" fill="none" stroke="rgb(0, 0, 0)" stroke-width="2" stroke-miterlimit="10" pointer-events="none"/><path d="M 54 100 L 102 100" fill="none" stroke="rgb(0, 0, 0)" stroke-width="2" stroke-miterlimit="10" pointer-events="none"/><path d="M 54 140 L 102 140" fill="none" stroke="rgb(0, 0, 0)" stroke-width="2" stroke-miterlimit="10" pointer-events="none"/></g><g data-cell-id="v9H8ekfJL8ZZ7yBG20ue-30"><g/><g data-cell-id="v9H8ekfJL8ZZ7yBG20ue-31"><g><rect x="54" y="20" width="48" height="40" fill="none" stroke="none" pointer-events="all"/><path d="M 54 20 M 102 20 M 102 60 M 54 60" fill="none" stroke="rgb(0, 0, 0)" stroke-width="2" stroke-linecap="square" stroke-miterlimit="10" pointer-events="all"/></g></g></g><g data-cell-id="v9H8ekfJL8ZZ7yBG20ue-32"><g/><g data-cell-id="v9H8ekfJL8ZZ7yBG20ue-33"><g><rect x="54" y="60" width="48" height="40" fill="none" stroke="none" pointer-events="all"/><path d="M 54 60 M 102 60 M 102 100 M 54 100" fill="none" stroke="rgb(0, 0, 0)" stroke-width="2" stroke-linecap="square" stroke-miterlimit="10" pointer-events="all"/></g></g></g><g data-cell-id="v9H8ekfJL8ZZ7yBG20ue-34"><g/><g data-cell-id="v9H8ekfJL8ZZ7yBG20ue-35"><g><rect x="54" y="100" width="48" height="40" fill="none" stroke="none" pointer-events="all"/><path d="M 54 100 M 102 100 M 102 140 M 54 140" fill="none" stroke="rgb(0, 0, 0)" stroke-width="2" stroke-linecap="square" stroke-miterlimit="10" pointer-events="all"/></g></g></g><g data-cell-id="v9H8ekfJL8ZZ7yBG20ue-36"><g/><g data-cell-id="v9H8ekfJL8ZZ7yBG20ue-37"><g><rect x="54" y="140" width="48" height="40" fill="none" stroke="none" pointer-events="all"/><path d="M 54 140 M 102 140 M 102 180 M 54 180" fill="none" stroke="rgb(0, 0, 0)" stroke-width="2" stroke-linecap="square" stroke-miterlimit="10" pointer-events="all"/></g></g></g></g><g data-cell-id="v9H8ekfJL8ZZ7yBG20ue-38"><g><rect x="124" y="20" width="48" height="160" fill="rgb(255, 255, 255)" stroke="none" pointer-events="none"/><path d="M 124 20 L 172 20 L 172 180 L 124 180 L 124 20" fill="none" stroke="rgb(0, 0, 0)" stroke-width="2" stroke-linecap="square" stroke-miterlimit="10" pointer-events="none"/><path d="M 124 60 L 172 60" fill="none" stroke="rgb(0, 0, 0)" stroke-width="2" stroke-miterlimit="10" pointer-events="none"/><path d="M 124 100 L 172 100" fill="none" stroke="rgb(0, 0, 0)" stroke-width="2" stroke-miterlimit="10" pointer-events="none"/><path d="M 124 140 L 172 140" fill="none" stroke="rgb(0, 0, 0)" stroke-width="2" stroke-miterlimit="10" pointer-events="none"/></g><g data-cell-id="v9H8ekfJL8ZZ7yBG20ue-39"><g/><g data-cell-id="v9H8ekfJL8ZZ7yBG20ue-40"><g><rect x="124" y="20" width="48" height="40" fill="none" stroke="none" pointer-events="all"/><path d="M 124 20 M 172 20 M 172 60 M 124 60" fill="none" stroke="rgb(0, 0, 0)" stroke-width="2" stroke-linecap="square" stroke-miterlimit="10" pointer-events="all"/></g></g></g><g data-cell-id="v9H8ekfJL8ZZ7yBG20ue-41"><g/><g data-cell-id="v9H8ekfJL8ZZ7yBG20ue-42"><g><rect x="124" y="60" width="48" height="40" fill="none" stroke="none" pointer-events="all"/><path d="M 124 60 M 172 60 M 172 100 M 124 100" fill="none" stroke="rgb(0, 0, 0)" stroke-width="2" stroke-linecap="square" stroke-miterlimit="10" pointer-events="all"/></g></g></g><g data-cell-id="v9H8ekfJL8ZZ7yBG20ue-43"><g/><g data-cell-id="v9H8ekfJL8ZZ7yBG20ue-44"><g><rect x="124" y="100" width="48" height="40" fill="none" stroke="none" pointer-events="all"/><path d="M 124 100 M 172 100 M 172 140 M 124 140" fill="none" stroke="rgb(0, 0, 0)" stroke-width="2" stroke-linecap="square" stroke-miterlimit="10" pointer-events="all"/></g></g></g><g data-cell-id="v9H8ekfJL8ZZ7yBG20ue-45"><g/><g data-cell-id="v9H8ekfJL8ZZ7yBG20ue-46"><g><rect x="124" y="140" width="48" height="40" fill="none" stroke="none" pointer-events="all"/><path d="M 124 140 M 172 140 M 172 180 M 124 180" fill="none" stroke="rgb(0, 0, 0)" stroke-width="2" stroke-linecap="square" stroke-miterlimit="10" pointer-events="all"/></g></g></g></g><g data-cell-id="v9H8ekfJL8ZZ7yBG20ue-47"><g><rect x="198" y="20" width="48" height="160" fill="rgb(255, 255, 255)" stroke="none" pointer-events="none"/><path d="M 198 20 L 246 20 L 246 180 L 198 180 L 198 20" fill="none" stroke="rgb(0, 0, 0)" stroke-width="2" stroke-linecap="square" stroke-miterlimit="10" pointer-events="none"/><path d="M 198 60 L 246 60" fill="none" stroke="rgb(0, 0, 0)" stroke-width="2" stroke-miterlimit="10" pointer-events="none"/><path d="M 198 100 L 246 100" fill="none" stroke="rgb(0, 0, 0)" stroke-width="2" stroke-miterlimit="10" pointer-events="none"/><path d="M 198 140 L 246 140" fill="none" stroke="rgb(0, 0, 0)" stroke-width="2" stroke-miterlimit="10" pointer-events="none"/></g><g data-cell-id="v9H8ekfJL8ZZ7yBG20ue-48"><g/><g data-cell-id="v9H8ekfJL8ZZ7yBG20ue-49"><g><rect x="198" y="20" width="48" height="40" fill="none" stroke="none" pointer-events="all"/><path d="M 198 20 M 246 20 M 246 60 M 198 60" fill="none" stroke="rgb(0, 0, 0)" stroke-width="2" stroke-linecap="square" stroke-miterlimit="10" pointer-events="all"/></g></g></g><g data-cell-id="v9H8ekfJL8ZZ7yBG20ue-50"><g/><g data-cell-id="v9H8ekfJL8ZZ7yBG20ue-51"><g><rect x="198" y="60" width="48" height="40" fill="none" stroke="none" pointer-events="all"/><path d="M 198 60 M 246 60 M 246 100 M 198 100" fill="none" stroke="rgb(0, 0, 0)" stroke-width="2" stroke-linecap="square" stroke-miterlimit="10" pointer-events="all"/></g></g></g><g data-cell-id="v9H8ekfJL8ZZ7yBG20ue-52"><g/><g data-cell-id="v9H8ekfJL8ZZ7yBG20ue-53"><g><rect x="198" y="100" width="48" height="40" fill="none" stroke="none" pointer-events="all"/><path d="M 198 100 M 246 100 M 246 140 M 198 140" fill="none" stroke="rgb(0, 0, 0)" stroke-width="2" stroke-linecap="square" stroke-miterlimit="10" pointer-events="all"/></g></g></g><g data-cell-id="v9H8ekfJL8ZZ7yBG20ue-54"><g/><g data-cell-id="v9H8ekfJL8ZZ7yBG20ue-55"><g><rect x="198" y="140" width="48" height="40" fill="none" stroke="none" pointer-events="all"/><path d="M 198 140 M 246 140 M 246 180 M 198 180" fill="none" stroke="rgb(0, 0, 0)" stroke-width="2" stroke-linecap="square" stroke-miterlimit="10" pointer-events="all"/></g></g></g></g><g data-cell-id="v9H8ekfJL8ZZ7yBG20ue-56"><g><path d="M 78 340 L 211.35 195.36" fill="none" stroke="rgb(0, 0, 0)" stroke-width="2" stroke-miterlimit="10" pointer-events="stroke"/><path d="M 218.47 187.64 L 214.13 202.68 L 211.35 195.36 L 203.83 193.19 Z" fill="rgb(0, 0, 0)" stroke="rgb(0, 0, 0)" stroke-width="2" stroke-miterlimit="10" pointer-events="all"/></g></g><g data-cell-id="v9H8ekfJL8ZZ7yBG20ue-57"><g><path d="M 218 340 L 219.82 199.73" fill="none" stroke="rgb(0, 0, 0)" stroke-width="2" stroke-miterlimit="10" pointer-events="stroke"/><path d="M 219.96 189.24 L 226.77 203.33 L 219.82 199.73 L 212.77 203.14 Z" fill="rgb(0, 0, 0)" stroke="rgb(0, 0, 0)" stroke-width="2" stroke-miterlimit="10" pointer-events="all"/></g></g><g data-cell-id="v9H8ekfJL8ZZ7yBG20ue-58"><g><path d="M 78 340 L 144.68 195.56" fill="none" stroke="rgb(0, 0, 0)" stroke-width="2" stroke-miterlimit="10" pointer-events="stroke"/><path d="M 149.08 186.03 L 149.57 201.67 L 144.68 195.56 L 136.86 195.81 Z" fill="rgb(0, 0, 0)" stroke="rgb(0, 0, 0)" stroke-width="2" stroke-miterlimit="10" pointer-events="all"/></g></g><g data-cell-id="v9H8ekfJL8ZZ7yBG20ue-59"><g><path d="M 78 340 L 78 192.74" fill="none" stroke="rgb(0, 0, 0)" stroke-width="2" stroke-miterlimit="10" pointer-events="stroke"/><path d="M 78 182.24 L 85 196.24 L 78 192.74 L 71 196.24 Z" fill="rgb(0, 0, 0)" stroke="rgb(0, 0, 0)" stroke-width="2" stroke-miterlimit="10" pointer-events="all"/></g></g><g data-cell-id="v9H8ekfJL8ZZ7yBG20ue-60"><g><path d="M 150 340 L 150.01 196.74" fill="none" stroke="rgb(0, 0, 0)" stroke-width="2" stroke-miterlimit="10" pointer-events="stroke"/><path d="M 150.02 186.24 L 157.01 200.24 L 150.01 196.74 L 143.01 200.24 Z" fill="rgb(0, 0, 0)" stroke="rgb(0, 0, 0)" stroke-width="2" stroke-miterlimit="10" pointer-events="all"/></g></g><g data-cell-id="v9H8ekfJL8ZZ7yBG20ue-61"><g><path d="M 218 340 L 154.24 198.61" fill="none" stroke="rgb(0, 0, 0)" stroke-width="2" stroke-miterlimit="10" pointer-events="stroke"/><path d="M 149.93 189.04 L 162.06 198.92 L 154.24 198.61 L 149.3 204.68 Z" fill="rgb(0, 0, 0)" stroke="rgb(0, 0, 0)" stroke-width="2" stroke-miterlimit="10" pointer-events="all"/></g></g><g data-cell-id="v9H8ekfJL8ZZ7yBG20ue-62"><g><path d="M 150 340 L 217.69 192.57" fill="none" stroke="rgb(0, 0, 0)" stroke-width="2" stroke-miterlimit="10" pointer-events="stroke"/><path d="M 222.07 183.03 L 222.59 198.68 L 217.69 192.57 L 209.87 192.83 Z" fill="rgb(0, 0, 0)" stroke="rgb(0, 0, 0)" stroke-width="2" stroke-miterlimit="10" pointer-events="all"/></g></g><g data-cell-id="v9H8ekfJL8ZZ7yBG20ue-63"><g><path d="M 218 340 L 88.3 188.67" fill="none" stroke="rgb(0, 0, 0)" stroke-width="2" stroke-miterlimit="10" pointer-events="stroke"/><path d="M 81.47 180.7 L 95.9 186.77 L 88.3 188.67 L 85.27 195.88 Z" fill="rgb(0, 0, 0)" stroke="rgb(0, 0, 0)" stroke-width="2" stroke-miterlimit="10" pointer-events="all"/></g></g><g data-cell-id="v9H8ekfJL8ZZ7yBG20ue-64"><g><path d="M 150 340 L 85.17 193.64" fill="none" stroke="rgb(0, 0, 0)" stroke-width="2" stroke-miterlimit="10" pointer-events="stroke"/><path d="M 80.92 184.04 L 92.99 194.01 L 85.17 193.64 L 80.19 199.68 Z" fill="rgb(0, 0, 0)" stroke="rgb(0, 0, 0)" stroke-width="2" stroke-miterlimit="10" pointer-events="all"/></g></g><g data-cell-id="v9H8ekfJL8ZZ7yBG20ue-65"><g><rect x="74" y="240" width="150" height="40" fill="rgb(255, 255, 255)" stroke="none" pointer-events="all"/></g><g><g transform="translate(-0.5 -0.5)scale(2)"><switch><foreignObject pointer-events="none" width="100%" height="100%" requiredFeatures="http://www.w3.org/TR/SVG11/feature#Extensibility" style="overflow: visible; text-align: left;"><div xmlns="http://www.w3.org/1999/xhtml" style="display: flex; align-items: unsafe center; justify-content: unsafe center; width: 73px; height: 1px; padding-top: 130px; margin-left: 38px;"><div data-drawio-colors="color: rgb(0, 0, 0); " style="box-sizing: border-box; font-size: 0px; text-align: center;"><div style="display: inline-block; font-size: 11px; font-family: Helvetica; color: rgb(0, 0, 0); line-height: 1.2; pointer-events: all; white-space: normal; overflow-wrap: normal;">Self-Attention</div></div></div></foreignObject><text x="75" y="133" fill="rgb(0, 0, 0)" font-family="&quot;Helvetica&quot;" font-size="11px" text-anchor="middle">Self-Attention</text></switch></g></g></g><g data-cell-id="v9H8ekfJL8ZZ7yBG20ue-66"><g><rect x="358" y="340" width="48" height="160" fill="rgb(255, 255, 255)" stroke="none" pointer-events="none"/><path d="M 358 340 L 406 340 L 406 500 L 358 500 L 358 340" fill="none" stroke="rgb(0, 0, 0)" stroke-width="2" stroke-linecap="square" stroke-miterlimit="10" pointer-events="none"/><path d="M 358 380 L 406 380" fill="none" stroke="rgb(0, 0, 0)" stroke-width="2" stroke-miterlimit="10" pointer-events="none"/><path d="M 358 420 L 406 420" fill="none" stroke="rgb(0, 0, 0)" stroke-width="2" stroke-miterlimit="10" pointer-events="none"/><path d="M 358 460 L 406 460" fill="none" stroke="rgb(0, 0, 0)" stroke-width="2" stroke-miterlimit="10" pointer-events="none"/></g><g data-cell-id="v9H8ekfJL8ZZ7yBG20ue-67"><g/><g data-cell-id="v9H8ekfJL8ZZ7yBG20ue-68"><g><rect x="358" y="340" width="48" height="40" fill="none" stroke="none" pointer-events="all"/><path d="M 358 340 M 406 340 M 406 380 M 358 380" fill="none" stroke="rgb(0, 0, 0)" stroke-width="2" stroke-linecap="square" stroke-miterlimit="10" pointer-events="all"/></g></g></g><g data-cell-id="v9H8ekfJL8ZZ7yBG20ue-69"><g/><g data-cell-id="v9H8ekfJL8ZZ7yBG20ue-70"><g><rect x="358" y="380" width="48" height="40" fill="none" stroke="none" pointer-events="all"/><path d="M 358 380 M 406 380 M 406 420 M 358 420" fill="none" stroke="rgb(0, 0, 0)" stroke-width="2" stroke-linecap="square" stroke-miterlimit="10" pointer-events="all"/></g></g></g><g data-cell-id="v9H8ekfJL8ZZ7yBG20ue-71"><g/><g data-cell-id="v9H8ekfJL8ZZ7yBG20ue-72"><g><rect x="358" y="420" width="48" height="40" fill="none" stroke="none" pointer-events="all"/><path d="M 358 420 M 406 420 M 406 460 M 358 460" fill="none" stroke="rgb(0, 0, 0)" stroke-width="2" stroke-linecap="square" stroke-miterlimit="10" pointer-events="all"/></g></g></g><g data-cell-id="v9H8ekfJL8ZZ7yBG20ue-73"><g/><g data-cell-id="v9H8ekfJL8ZZ7yBG20ue-74"><g><rect x="358" y="460" width="48" height="40" fill="none" stroke="none" pointer-events="all"/><path d="M 358 460 M 406 460 M 406 500 M 358 500" fill="none" stroke="rgb(0, 0, 0)" stroke-width="2" stroke-linecap="square" stroke-miterlimit="10" pointer-events="all"/></g></g></g></g><g data-cell-id="v9H8ekfJL8ZZ7yBG20ue-75"><g><rect x="432" y="340" width="48" height="160" fill="rgb(255, 255, 255)" stroke="none" pointer-events="none"/><path d="M 432 340 L 480 340 L 480 500 L 432 500 L 432 340" fill="none" stroke="rgb(0, 0, 0)" stroke-width="2" stroke-linecap="square" stroke-miterlimit="10" pointer-events="none"/><path d="M 432 380 L 480 380" fill="none" stroke="rgb(0, 0, 0)" stroke-width="2" stroke-miterlimit="10" pointer-events="none"/><path d="M 432 420 L 480 420" fill="none" stroke="rgb(0, 0, 0)" stroke-width="2" stroke-miterlimit="10" pointer-events="none"/><path d="M 432 460 L 480 460" fill="none" stroke="rgb(0, 0, 0)" stroke-width="2" stroke-miterlimit="10" pointer-events="none"/></g><g data-cell-id="v9H8ekfJL8ZZ7yBG20ue-76"><g/><g data-cell-id="v9H8ekfJL8ZZ7yBG20ue-77"><g><rect x="432" y="340" width="48" height="40" fill="none" stroke="none" pointer-events="all"/><path d="M 432 340 M 480 340 M 480 380 M 432 380" fill="none" stroke="rgb(0, 0, 0)" stroke-width="2" stroke-linecap="square" stroke-miterlimit="10" pointer-events="all"/></g></g></g><g data-cell-id="v9H8ekfJL8ZZ7yBG20ue-78"><g/><g data-cell-id="v9H8ekfJL8ZZ7yBG20ue-79"><g><rect x="432" y="380" width="48" height="40" fill="none" stroke="none" pointer-events="all"/><path d="M 432 380 M 480 380 M 480 420 M 432 420" fill="none" stroke="rgb(0, 0, 0)" stroke-width="2" stroke-linecap="square" stroke-miterlimit="10" pointer-events="all"/></g></g></g><g data-cell-id="v9H8ekfJL8ZZ7yBG20ue-80"><g/><g data-cell-id="v9H8ekfJL8ZZ7yBG20ue-81"><g><rect x="432" y="420" width="48" height="40" fill="none" stroke="none" pointer-events="all"/><path d="M 432 420 M 480 420 M 480 460 M 432 460" fill="none" stroke="rgb(0, 0, 0)" stroke-width="2" stroke-linecap="square" stroke-miterlimit="10" pointer-events="all"/></g></g></g><g data-cell-id="v9H8ekfJL8ZZ7yBG20ue-82"><g/><g data-cell-id="v9H8ekfJL8ZZ7yBG20ue-83"><g><rect x="432" y="460" width="48" height="40" fill="none" stroke="none" pointer-events="all"/><path d="M 432 460 M 480 460 M 480 500 M 432 500" fill="none" stroke="rgb(0, 0, 0)" stroke-width="2" stroke-linecap="square" stroke-miterlimit="10" pointer-events="all"/></g></g></g></g><g data-cell-id="v9H8ekfJL8ZZ7yBG20ue-84"><g><rect x="506" y="340" width="48" height="160" fill="rgb(255, 255, 255)" stroke="none" pointer-events="none"/><path d="M 506 340 L 554 340 L 554 500 L 506 500 L 506 340" fill="none" stroke="rgb(0, 0, 0)" stroke-width="2" stroke-linecap="square" stroke-miterlimit="10" pointer-events="none"/><path d="M 506 380 L 554 380" fill="none" stroke="rgb(0, 0, 0)" stroke-width="2" stroke-miterlimit="10" pointer-events="none"/><path d="M 506 420 L 554 420" fill="none" stroke="rgb(0, 0, 0)" stroke-width="2" stroke-miterlimit="10" pointer-events="none"/><path d="M 506 460 L 554 460" fill="none" stroke="rgb(0, 0, 0)" stroke-width="2" stroke-miterlimit="10" pointer-events="none"/></g><g data-cell-id="v9H8ekfJL8ZZ7yBG20ue-85"><g/><g data-cell-id="v9H8ekfJL8ZZ7yBG20ue-86"><g><rect x="506" y="340" width="48" height="40" fill="none" stroke="none" pointer-events="all"/><path d="M 506 340 M 554 340 M 554 380 M 506 380" fill="none" stroke="rgb(0, 0, 0)" stroke-width="2" stroke-linecap="square" stroke-miterlimit="10" pointer-events="all"/></g></g></g><g data-cell-id="v9H8ekfJL8ZZ7yBG20ue-87"><g/><g data-cell-id="v9H8ekfJL8ZZ7yBG20ue-88"><g><rect x="506" y="380" width="48" height="40" fill="none" stroke="none" pointer-events="all"/><path d="M 506 380 M 554 380 M 554 420 M 506 420" fill="none" stroke="rgb(0, 0, 0)" stroke-width="2" stroke-linecap="square" stroke-miterlimit="10" pointer-events="all"/></g></g></g><g data-cell-id="v9H8ekfJL8ZZ7yBG20ue-89"><g/><g data-cell-id="v9H8ekfJL8ZZ7yBG20ue-90"><g><rect x="506" y="420" width="48" height="40" fill="none" stroke="none" pointer-events="all"/><path d="M 506 420 M 554 420 M 554 460 M 506 460" fill="none" stroke="rgb(0, 0, 0)" stroke-width="2" stroke-linecap="square" stroke-miterlimit="10" pointer-events="all"/></g></g></g><g data-cell-id="v9H8ekfJL8ZZ7yBG20ue-91"><g/><g data-cell-id="v9H8ekfJL8ZZ7yBG20ue-92"><g><rect x="506" y="460" width="48" height="40" fill="none" stroke="none" pointer-events="all"/><path d="M 506 460 M 554 460 M 554 500 M 506 500" fill="none" stroke="rgb(0, 0, 0)" stroke-width="2" stroke-linecap="square" stroke-miterlimit="10" pointer-events="all"/></g></g></g></g><g data-cell-id="v9H8ekfJL8ZZ7yBG20ue-93"><g><rect x="362" y="20" width="48" height="160" fill="rgb(255, 255, 255)" stroke="none" pointer-events="none"/><path d="M 362 20 L 410 20 L 410 180 L 362 180 L 362 20" fill="none" stroke="rgb(0, 0, 0)" stroke-width="2" stroke-linecap="square" stroke-miterlimit="10" pointer-events="none"/><path d="M 362 60 L 410 60" fill="none" stroke="rgb(0, 0, 0)" stroke-width="2" stroke-miterlimit="10" pointer-events="none"/><path d="M 362 100 L 410 100" fill="none" stroke="rgb(0, 0, 0)" stroke-width="2" stroke-miterlimit="10" pointer-events="none"/><path d="M 362 140 L 410 140" fill="none" stroke="rgb(0, 0, 0)" stroke-width="2" stroke-miterlimit="10" pointer-events="none"/></g><g data-cell-id="v9H8ekfJL8ZZ7yBG20ue-94"><g/><g data-cell-id="v9H8ekfJL8ZZ7yBG20ue-95"><g><rect x="362" y="20" width="48" height="40" fill="none" stroke="none" pointer-events="all"/><path d="M 362 20 M 410 20 M 410 60 M 362 60" fill="none" stroke="rgb(0, 0, 0)" stroke-width="2" stroke-linecap="square" stroke-miterlimit="10" pointer-events="all"/></g></g></g><g data-cell-id="v9H8ekfJL8ZZ7yBG20ue-96"><g/><g data-cell-id="v9H8ekfJL8ZZ7yBG20ue-97"><g><rect x="362" y="60" width="48" height="40" fill="none" stroke="none" pointer-events="all"/><path d="M 362 60 M 410 60 M 410 100 M 362 100" fill="none" stroke="rgb(0, 0, 0)" stroke-width="2" stroke-linecap="square" stroke-miterlimit="10" pointer-events="all"/></g></g></g><g data-cell-id="v9H8ekfJL8ZZ7yBG20ue-98"><g/><g data-cell-id="v9H8ekfJL8ZZ7yBG20ue-99"><g><rect x="362" y="100" width="48" height="40" fill="none" stroke="none" pointer-events="all"/><path d="M 362 100 M 410 100 M 410 140 M 362 140" fill="none" stroke="rgb(0, 0, 0)" stroke-width="2" stroke-linecap="square" stroke-miterlimit="10" pointer-events="all"/></g></g></g><g data-cell-id="v9H8ekfJL8ZZ7yBG20ue-100"><g/><g data-cell-id="v9H8ekfJL8ZZ7yBG20ue-101"><g><rect x="362" y="140" width="48" height="40" fill="none" stroke="none" pointer-events="all"/><path d="M 362 140 M 410 140 M 410 180 M 362 180" fill="none" stroke="rgb(0, 0, 0)" stroke-width="2" stroke-linecap="square" stroke-miterlimit="10" pointer-events="all"/></g></g></g></g><g data-cell-id="v9H8ekfJL8ZZ7yBG20ue-102"><g><rect x="434" y="20" width="48" height="160" fill="rgb(255, 255, 255)" stroke="none" pointer-events="none"/><path d="M 434 20 L 482 20 L 482 180 L 434 180 L 434 20" fill="none" stroke="rgb(0, 0, 0)" stroke-width="2" stroke-linecap="square" stroke-miterlimit="10" pointer-events="none"/><path d="M 434 60 L 482 60" fill="none" stroke="rgb(0, 0, 0)" stroke-width="2" stroke-miterlimit="10" pointer-events="none"/><path d="M 434 100 L 482 100" fill="none" stroke="rgb(0, 0, 0)" stroke-width="2" stroke-miterlimit="10" pointer-events="none"/><path d="M 434 140 L 482 140" fill="none" stroke="rgb(0, 0, 0)" stroke-width="2" stroke-miterlimit="10" pointer-events="none"/></g><g data-cell-id="v9H8ekfJL8ZZ7yBG20ue-103"><g/><g data-cell-id="v9H8ekfJL8ZZ7yBG20ue-104"><g><rect x="434" y="20" width="48" height="40" fill="none" stroke="none" pointer-events="all"/><path d="M 434 20 M 482 20 M 482 60 M 434 60" fill="none" stroke="rgb(0, 0, 0)" stroke-width="2" stroke-linecap="square" stroke-miterlimit="10" pointer-events="all"/></g></g></g><g data-cell-id="v9H8ekfJL8ZZ7yBG20ue-105"><g/><g data-cell-id="v9H8ekfJL8ZZ7yBG20ue-106"><g><rect x="434" y="60" width="48" height="40" fill="none" stroke="none" pointer-events="all"/><path d="M 434 60 M 482 60 M 482 100 M 434 100" fill="none" stroke="rgb(0, 0, 0)" stroke-width="2" stroke-linecap="square" stroke-miterlimit="10" pointer-events="all"/></g></g></g><g data-cell-id="v9H8ekfJL8ZZ7yBG20ue-107"><g/><g data-cell-id="v9H8ekfJL8ZZ7yBG20ue-108"><g><rect x="434" y="100" width="48" height="40" fill="none" stroke="none" pointer-events="all"/><path d="M 434 100 M 482 100 M 482 140 M 434 140" fill="none" stroke="rgb(0, 0, 0)" stroke-width="2" stroke-linecap="square" stroke-miterlimit="10" pointer-events="all"/></g></g></g><g data-cell-id="v9H8ekfJL8ZZ7yBG20ue-109"><g/><g data-cell-id="v9H8ekfJL8ZZ7yBG20ue-110"><g><rect x="434" y="140" width="48" height="40" fill="none" stroke="none" pointer-events="all"/><path d="M 434 140 M 482 140 M 482 180 M 434 180" fill="none" stroke="rgb(0, 0, 0)" stroke-width="2" stroke-linecap="square" stroke-miterlimit="10" pointer-events="all"/></g></g></g></g><g data-cell-id="v9H8ekfJL8ZZ7yBG20ue-111"><g><rect x="506" y="20" width="48" height="160" fill="rgb(255, 255, 255)" stroke="none" pointer-events="none"/><path d="M 506 20 L 554 20 L 554 180 L 506 180 L 506 20" fill="none" stroke="rgb(0, 0, 0)" stroke-width="2" stroke-linecap="square" stroke-miterlimit="10" pointer-events="none"/><path d="M 506 60 L 554 60" fill="none" stroke="rgb(0, 0, 0)" stroke-width="2" stroke-miterlimit="10" pointer-events="none"/><path d="M 506 100 L 554 100" fill="none" stroke="rgb(0, 0, 0)" stroke-width="2" stroke-miterlimit="10" pointer-events="none"/><path d="M 506 140 L 554 140" fill="none" stroke="rgb(0, 0, 0)" stroke-width="2" stroke-miterlimit="10" pointer-events="none"/></g><g data-cell-id="v9H8ekfJL8ZZ7yBG20ue-112"><g/><g data-cell-id="v9H8ekfJL8ZZ7yBG20ue-113"><g><rect x="506" y="20" width="48" height="40" fill="none" stroke="none" pointer-events="all"/><path d="M 506 20 M 554 20 M 554 60 M 506 60" fill="none" stroke="rgb(0, 0, 0)" stroke-width="2" stroke-linecap="square" stroke-miterlimit="10" pointer-events="all"/></g></g></g><g data-cell-id="v9H8ekfJL8ZZ7yBG20ue-114"><g/><g data-cell-id="v9H8ekfJL8ZZ7yBG20ue-115"><g><rect x="506" y="60" width="48" height="40" fill="none" stroke="none" pointer-events="all"/><path d="M 506 60 M 554 60 M 554 100 M 506 100" fill="none" stroke="rgb(0, 0, 0)" stroke-width="2" stroke-linecap="square" stroke-miterlimit="10" pointer-events="all"/></g></g></g><g data-cell-id="v9H8ekfJL8ZZ7yBG20ue-116"><g/><g data-cell-id="v9H8ekfJL8ZZ7yBG20ue-117"><g><rect x="506" y="100" width="48" height="40" fill="none" stroke="none" pointer-events="all"/><path d="M 506 100 M 554 100 M 554 140 M 506 140" fill="none" stroke="rgb(0, 0, 0)" stroke-width="2" stroke-linecap="square" stroke-miterlimit="10" pointer-events="all"/></g></g></g><g data-cell-id="v9H8ekfJL8ZZ7yBG20ue-118"><g/><g data-cell-id="v9H8ekfJL8ZZ7yBG20ue-119"><g><rect x="506" y="140" width="48" height="40" fill="none" stroke="none" pointer-events="all"/><path d="M 506 140 M 554 140 M 554 180 M 506 180" fill="none" stroke="rgb(0, 0, 0)" stroke-width="2" stroke-linecap="square" stroke-miterlimit="10" pointer-events="all"/></g></g></g></g><g data-cell-id="v9H8ekfJL8ZZ7yBG20ue-120"><g><path d="M 386 340 L 519.35 195.36" fill="none" stroke="rgb(0, 0, 0)" stroke-width="2" stroke-miterlimit="10" pointer-events="stroke"/><path d="M 526.47 187.64 L 522.13 202.68 L 519.35 195.36 L 511.83 193.19 Z" fill="rgb(0, 0, 0)" stroke="rgb(0, 0, 0)" stroke-width="2" stroke-miterlimit="10" pointer-events="all"/></g></g><g data-cell-id="v9H8ekfJL8ZZ7yBG20ue-121"><g><path d="M 526 340 L 527.82 199.73" fill="none" stroke="rgb(0, 0, 0)" stroke-width="2" stroke-miterlimit="10" pointer-events="stroke"/><path d="M 527.96 189.24 L 534.77 203.33 L 527.82 199.73 L 520.77 203.14 Z" fill="rgb(0, 0, 0)" stroke="rgb(0, 0, 0)" stroke-width="2" stroke-miterlimit="10" pointer-events="all"/></g></g><g data-cell-id="v9H8ekfJL8ZZ7yBG20ue-122"><g><path d="M 386 340 L 454.56 195.51" fill="none" stroke="rgb(0, 0, 0)" stroke-width="2" stroke-miterlimit="10" pointer-events="stroke"/><path d="M 459.06 186.02 L 459.38 201.67 L 454.56 195.51 L 446.73 195.67 Z" fill="rgb(0, 0, 0)" stroke="rgb(0, 0, 0)" stroke-width="2" stroke-miterlimit="10" pointer-events="all"/></g></g><g data-cell-id="v9H8ekfJL8ZZ7yBG20ue-123"><g><path d="M 386 340 L 386 192.74" fill="none" stroke="rgb(0, 0, 0)" stroke-width="2" stroke-miterlimit="10" pointer-events="stroke"/><path d="M 386 182.24 L 393 196.24 L 386 192.74 L 379 196.24 Z" fill="rgb(0, 0, 0)" stroke="rgb(0, 0, 0)" stroke-width="2" stroke-miterlimit="10" pointer-events="all"/></g></g><g data-cell-id="v9H8ekfJL8ZZ7yBG20ue-124"><g><path d="M 458 340 L 459.85 196.73" fill="none" stroke="rgb(0, 0, 0)" stroke-width="2" stroke-miterlimit="10" pointer-events="stroke"/><path d="M 459.99 186.24 L 466.81 200.33 L 459.85 196.73 L 452.81 200.14 Z" fill="rgb(0, 0, 0)" stroke="rgb(0, 0, 0)" stroke-width="2" stroke-miterlimit="10" pointer-events="all"/></g></g><g data-cell-id="v9H8ekfJL8ZZ7yBG20ue-125"><g><path d="M 458 340 L 525.69 192.57" fill="none" stroke="rgb(0, 0, 0)" stroke-width="2" stroke-miterlimit="10" pointer-events="stroke"/><path d="M 530.07 183.03 L 530.59 198.68 L 525.69 192.57 L 517.87 192.83 Z" fill="rgb(0, 0, 0)" stroke="rgb(0, 0, 0)" stroke-width="2" stroke-miterlimit="10" pointer-events="all"/></g></g><g data-cell-id="v9H8ekfJL8ZZ7yBG20ue-126"><g><rect x="380" y="240" width="152" height="40" fill="rgb(255, 255, 255)" stroke="none" pointer-events="all"/></g><g><g transform="translate(-0.5 -0.5)scale(2)"><switch><foreignObject pointer-events="none" width="100%" height="100%" requiredFeatures="http://www.w3.org/TR/SVG11/feature#Extensibility" style="overflow: visible; text-align: left;"><div xmlns="http://www.w3.org/1999/xhtml" style="display: flex; align-items: unsafe center; justify-content: unsafe center; width: 74px; height: 1px; padding-top: 130px; margin-left: 191px;"><div data-drawio-colors="color: rgb(0, 0, 0); " style="box-sizing: border-box; font-size: 0px; text-align: center;"><div style="display: inline-block; font-size: 11px; font-family: Helvetica; color: rgb(0, 0, 0); line-height: 1.2; pointer-events: all; white-space: normal; overflow-wrap: normal;">Self-Attention</div></div></div></foreignObject><text x="228" y="133" fill="rgb(0, 0, 0)" font-family="&quot;Helvetica&quot;" font-size="11px" text-anchor="middle">Self-Attention</text></switch></g></g></g><g data-cell-id="v9H8ekfJL8ZZ7yBG20ue-127"><g><rect x="-0.5" y="510" width="278.5" height="80" fill="none" stroke="none" pointer-events="all"/></g><g><g transform="translate(-0.5 -0.5)scale(2)"><switch><foreignObject pointer-events="none" width="100%" height="100%" requiredFeatures="http://www.w3.org/TR/SVG11/feature#Extensibility" style="overflow: visible; text-align: left;"><div xmlns="http://www.w3.org/1999/xhtml" style="display: flex; align-items: unsafe center; justify-content: unsafe center; width: 137px; height: 1px; padding-top: 275px; margin-left: 1px;"><div data-drawio-colors="color: rgb(0, 0, 0); " style="box-sizing: border-box; font-size: 0px; text-align: center;"><div style="display: inline-block; font-size: 12px; font-family: Helvetica; color: rgb(0, 0, 0); line-height: 1.2; pointer-events: all; white-space: normal; overflow-wrap: normal;"><font style="font-size: 12px;">Self-attention mechanism in the encoder</font></div></div></div></foreignObject><text x="69" y="279" fill="rgb(0, 0, 0)" font-family="&quot;Helvetica&quot;" font-size="12px" text-anchor="middle">Self-attention mechanis...</text></switch></g></g></g><g data-cell-id="v9H8ekfJL8ZZ7yBG20ue-128"><g><rect x="314" y="520" width="288" height="60" fill="none" stroke="none" pointer-events="all"/></g><g><g transform="translate(-0.5 -0.5)scale(2)"><switch><foreignObject pointer-events="none" width="100%" height="100%" requiredFeatures="http://www.w3.org/TR/SVG11/feature#Extensibility" style="overflow: visible; text-align: left;"><div xmlns="http://www.w3.org/1999/xhtml" style="display: flex; align-items: unsafe center; justify-content: unsafe center; width: 142px; height: 1px; padding-top: 275px; margin-left: 158px;"><div data-drawio-colors="color: rgb(0, 0, 0); " style="box-sizing: border-box; font-size: 0px; text-align: center;"><div style="display: inline-block; font-size: 12px; font-family: Helvetica; color: rgb(0, 0, 0); line-height: 1.2; pointer-events: all; white-space: normal; overflow-wrap: normal;"><span style="font-size: 12px;">Self-attention mechanism in the decoder</span></div></div></div></foreignObject><text x="229" y="279" fill="rgb(0, 0, 0)" font-family="&quot;Helvetica&quot;" font-size="12px" text-anchor="middle">Self-attention mechanism...</text></switch></g></g></g></g></g></g><switch><g requiredFeatures="http://www.w3.org/TR/SVG11/feature#Extensibility"/><a transform="translate(0,-5)" xlink:href="https://www.drawio.com/doc/faq/svg-export-text-problems" target="_blank"><text text-anchor="middle" font-size="10px" x="50%" y="100%">Text is not SVG - cannot display</text></a></switch></svg>