<?xml version="1.0" encoding="UTF-8"?>
<!DOCTYPE svg PUBLIC "-//W3C//DTD SVG 1.1//EN" "http://www.w3.org/Graphics/SVG/1.1/DTD/svg11.dtd">
<svg xmlns="http://www.w3.org/2000/svg" xmlns:xlink="http://www.w3.org/1999/xlink" version="1.1" width="1263px" height="653px" viewBox="-0.5 -0.5 1263 653"><defs/><g><g data-cell-id="0"><g data-cell-id="1"><g data-cell-id="KBkpQVT8iDJIhhc8ptCC-7"><g><rect x="0" y="0" width="900" height="650" fill="none" stroke="rgb(0, 0, 0)" stroke-width="2" stroke-dasharray="6 6" pointer-events="all"/></g></g><g data-cell-id="KBkpQVT8iDJIhhc8ptCC-1"><g><path d="M 622 70 C 622 53.43 680.2 40 752 40 C 786.48 40 819.54 43.16 843.92 48.79 C 868.3 54.41 882 62.04 882 70 L 882 530 C 882 546.57 823.8 560 752 560 C 680.2 560 622 546.57 622 530 Z" fill="#fff2cc" stroke="#d6b656" stroke-width="2" stroke-miterlimit="10" pointer-events="all"/><path d="M 882 70 C 882 86.57 823.8 100 752 100 C 680.2 100 622 86.57 622 70" fill="none" stroke="#d6b656" stroke-width="2" stroke-miterlimit="10" pointer-events="all"/></g><g><g transform="translate(-0.5 -0.5)scale(2)"><switch><foreignObject pointer-events="none" width="100%" height="100%" requiredFeatures="http://www.w3.org/TR/SVG11/feature#Extensibility" style="overflow: visible; text-align: left;"><div xmlns="http://www.w3.org/1999/xhtml" style="display: flex; align-items: unsafe center; justify-content: unsafe center; width: 128px; height: 1px; padding-top: 163px; margin-left: 312px;"><div data-drawio-colors="color: rgb(0, 0, 0); " style="box-sizing: border-box; font-size: 0px; text-align: center;"><div style="display: inline-block; font-size: 13px; font-family: Helvetica; color: rgb(0, 0, 0); line-height: 1.2; pointer-events: all; white-space: normal; overflow-wrap: normal;">Social Media Posts</div></div></div></foreignObject><text x="376" y="167" fill="rgb(0, 0, 0)" font-family="&quot;Helvetica&quot;" font-size="13px" text-anchor="middle">Social Media Posts</text></switch></g></g></g><g data-cell-id="KBkpQVT8iDJIhhc8ptCC-2"><g><path d="M 18 70 C 18 53.43 76.2 40 148 40 C 182.48 40 215.54 43.16 239.92 48.79 C 264.3 54.41 278 62.04 278 70 L 278 530 C 278 546.57 219.8 560 148 560 C 76.2 560 18 546.57 18 530 Z" fill="#fff2cc" stroke="#d6b656" stroke-width="2" stroke-miterlimit="10" pointer-events="all"/><path d="M 278 70 C 278 86.57 219.8 100 148 100 C 76.2 100 18 86.57 18 70" fill="none" stroke="#d6b656" stroke-width="2" stroke-miterlimit="10" pointer-events="all"/></g><g><g transform="translate(-0.5 -0.5)scale(2)"><switch><foreignObject pointer-events="none" width="100%" height="100%" requiredFeatures="http://www.w3.org/TR/SVG11/feature#Extensibility" style="overflow: visible; text-align: left;"><div xmlns="http://www.w3.org/1999/xhtml" style="display: flex; align-items: unsafe center; justify-content: unsafe center; width: 128px; height: 1px; padding-top: 163px; margin-left: 10px;"><div data-drawio-colors="color: rgb(0, 0, 0); " style="box-sizing: border-box; font-size: 0px; text-align: center;"><div style="display: inline-block; font-size: 13px; font-family: Helvetica; color: rgb(0, 0, 0); line-height: 1.2; pointer-events: all; white-space: normal; overflow-wrap: normal;">Books</div></div></div></foreignObject><text x="74" y="167" fill="rgb(0, 0, 0)" font-family="&quot;Helvetica&quot;" font-size="13px" text-anchor="middle">Books</text></switch></g></g></g><g data-cell-id="KBkpQVT8iDJIhhc8ptCC-3"><g><path d="M 298 70 C 298 53.43 356.2 40 428 40 C 462.48 40 495.54 43.16 519.92 48.79 C 544.3 54.41 558 62.04 558 70 L 558 530 C 558 546.57 499.8 560 428 560 C 356.2 560 298 546.57 298 530 Z" fill="#fff2cc" stroke="#d6b656" stroke-width="2" stroke-miterlimit="10" pointer-events="all"/><path d="M 558 70 C 558 86.57 499.8 100 428 100 C 356.2 100 298 86.57 298 70" fill="none" stroke="#d6b656" stroke-width="2" stroke-miterlimit="10" pointer-events="all"/></g><g><g transform="translate(-0.5 -0.5)scale(2)"><switch><foreignObject pointer-events="none" width="100%" height="100%" requiredFeatures="http://www.w3.org/TR/SVG11/feature#Extensibility" style="overflow: visible; text-align: left;"><div xmlns="http://www.w3.org/1999/xhtml" style="display: flex; align-items: unsafe center; justify-content: unsafe center; width: 128px; height: 1px; padding-top: 163px; margin-left: 150px;"><div data-drawio-colors="color: rgb(0, 0, 0); " style="box-sizing: border-box; font-size: 0px; text-align: center;"><div style="display: inline-block; font-size: 13px; font-family: Helvetica; color: rgb(0, 0, 0); line-height: 1.2; pointer-events: all; white-space: normal; overflow-wrap: normal;">GitHub</div></div></div></foreignObject><text x="214" y="167" fill="rgb(0, 0, 0)" font-family="&quot;Helvetica&quot;" font-size="13px" text-anchor="middle">GitHub</text></switch></g></g></g><g data-cell-id="KBkpQVT8iDJIhhc8ptCC-4"><g><rect x="530" y="291" width="120" height="60" fill="none" stroke="none" pointer-events="all"/></g><g><g transform="translate(-0.5 -0.5)scale(2)"><switch><foreignObject pointer-events="none" width="100%" height="100%" requiredFeatures="http://www.w3.org/TR/SVG11/feature#Extensibility" style="overflow: visible; text-align: left;"><div xmlns="http://www.w3.org/1999/xhtml" style="display: flex; align-items: unsafe center; justify-content: unsafe center; width: 58px; height: 1px; padding-top: 161px; margin-left: 266px;"><div data-drawio-colors="color: rgb(0, 0, 0); " style="box-sizing: border-box; font-size: 0px; text-align: center;"><div style="display: inline-block; font-size: 13px; font-family: Helvetica; color: rgb(0, 0, 0); line-height: 1.2; pointer-events: all; white-space: normal; overflow-wrap: normal;">...</div></div></div></foreignObject><text x="295" y="164" fill="rgb(0, 0, 0)" font-family="&quot;Helvetica&quot;" font-size="13px" text-anchor="middle">...</text></switch></g></g></g><g data-cell-id="KBkpQVT8iDJIhhc8ptCC-6"><g><path d="M 990 310 C 990 293.43 1034.77 280 1090 280 C 1116.52 280 1141.96 283.16 1160.71 288.79 C 1179.46 294.41 1190 302.04 1190 310 L 1190 370 C 1190 386.57 1145.23 400 1090 400 C 1034.77 400 990 386.57 990 370 Z" fill="#fff2cc" stroke="#d6b656" stroke-width="2" stroke-miterlimit="10" pointer-events="all"/><path d="M 1190 310 C 1190 326.57 1145.23 340 1090 340 C 1034.77 340 990 326.57 990 310" fill="none" stroke="#d6b656" stroke-width="2" stroke-miterlimit="10" pointer-events="all"/></g><g><g transform="translate(-0.5 -0.5)scale(2)"><switch><foreignObject pointer-events="none" width="100%" height="100%" requiredFeatures="http://www.w3.org/TR/SVG11/feature#Extensibility" style="overflow: visible; text-align: left;"><div xmlns="http://www.w3.org/1999/xhtml" style="display: flex; align-items: unsafe center; justify-content: unsafe center; width: 98px; height: 1px; padding-top: 183px; margin-left: 496px;"><div data-drawio-colors="color: rgb(0, 0, 0); " style="box-sizing: border-box; font-size: 0px; text-align: center;"><div style="display: inline-block; font-size: 13px; font-family: Helvetica; color: rgb(0, 0, 0); line-height: 1.2; pointer-events: all; white-space: normal; overflow-wrap: normal;">Labels</div></div></div></foreignObject><text x="545" y="187" fill="rgb(0, 0, 0)" font-family="&quot;Helvetica&quot;" font-size="13px" text-anchor="middle">Labels</text></switch></g></g></g><g data-cell-id="KBkpQVT8iDJIhhc8ptCC-5"><g><path d="M 990 230 C 990 213.43 1034.77 200 1090 200 C 1116.52 200 1141.96 203.16 1160.71 208.79 C 1179.46 214.41 1190 222.04 1190 230 L 1190 290 C 1190 306.57 1145.23 320 1090 320 C 1034.77 320 990 306.57 990 290 Z" fill="#fff2cc" stroke="#d6b656" stroke-width="2" stroke-miterlimit="10" pointer-events="all"/><path d="M 1190 230 C 1190 246.57 1145.23 260 1090 260 C 1034.77 260 990 246.57 990 230" fill="none" stroke="#d6b656" stroke-width="2" stroke-miterlimit="10" pointer-events="all"/></g><g><g transform="translate(-0.5 -0.5)scale(2)"><switch><foreignObject pointer-events="none" width="100%" height="100%" requiredFeatures="http://www.w3.org/TR/SVG11/feature#Extensibility" style="overflow: visible; text-align: left;"><div xmlns="http://www.w3.org/1999/xhtml" style="display: flex; align-items: unsafe center; justify-content: unsafe center; width: 98px; height: 1px; padding-top: 143px; margin-left: 496px;"><div data-drawio-colors="color: rgb(0, 0, 0); " style="box-sizing: border-box; font-size: 0px; text-align: center;"><div style="display: inline-block; font-size: 13px; font-family: Helvetica; color: rgb(0, 0, 0); line-height: 1.2; pointer-events: all; white-space: normal; overflow-wrap: normal;">Medical images</div></div></div></foreignObject><text x="545" y="147" fill="rgb(0, 0, 0)" font-family="&quot;Helvetica&quot;" font-size="13px" text-anchor="middle">Medical images</text></switch></g></g></g><g data-cell-id="KBkpQVT8iDJIhhc8ptCC-8"><g><rect x="290" y="600" width="320" height="50" fill="none" stroke="none" pointer-events="all"/></g><g><g transform="translate(-0.5 -0.5)scale(2)"><switch><foreignObject pointer-events="none" width="100%" height="100%" requiredFeatures="http://www.w3.org/TR/SVG11/feature#Extensibility" style="overflow: visible; text-align: left;"><div xmlns="http://www.w3.org/1999/xhtml" style="display: flex; align-items: unsafe center; justify-content: unsafe center; width: 158px; height: 1px; padding-top: 313px; margin-left: 146px;"><div data-drawio-colors="color: rgb(0, 0, 0); " style="box-sizing: border-box; font-size: 0px; text-align: center;"><div style="display: inline-block; font-size: 14px; font-family: Helvetica; color: rgb(0, 0, 0); line-height: 1.2; pointer-events: all; white-space: normal; overflow-wrap: normal;"><font style="font-size: 14px;">Internet data for chatbot</font></div></div></div></foreignObject><text x="225" y="317" fill="rgb(0, 0, 0)" font-family="&quot;Helvetica&quot;" font-size="14px" text-anchor="middle">Internet data for chatb...</text></switch></g></g></g><g data-cell-id="KBkpQVT8iDJIhhc8ptCC-9"><g><rect x="920" y="0" width="340" height="650" fill="none" stroke="rgb(0, 0, 0)" stroke-width="2" stroke-dasharray="6 6" pointer-events="all"/></g></g><g data-cell-id="KBkpQVT8iDJIhhc8ptCC-10"><g><rect x="950" y="582" width="280" height="60" fill="none" stroke="none" pointer-events="all"/></g><g><g transform="translate(-0.5 -0.5)scale(2)"><switch><foreignObject pointer-events="none" width="100%" height="100%" requiredFeatures="http://www.w3.org/TR/SVG11/feature#Extensibility" style="overflow: visible; text-align: left;"><div xmlns="http://www.w3.org/1999/xhtml" style="display: flex; align-items: unsafe center; justify-content: unsafe center; width: 138px; height: 1px; padding-top: 306px; margin-left: 476px;"><div data-drawio-colors="color: rgb(0, 0, 0); " style="box-sizing: border-box; font-size: 0px; text-align: center;"><div style="display: inline-block; font-size: 14px; font-family: Helvetica; color: rgb(0, 0, 0); line-height: 1.2; pointer-events: all; white-space: normal; overflow-wrap: normal;"><font style="font-size: 14px;">Curated data for disease diagnosis</font></div></div></div></foreignObject><text x="545" y="310" fill="rgb(0, 0, 0)" font-family="&quot;Helvetica&quot;" font-size="14px" text-anchor="middle">Curated data for dis...</text></switch></g></g></g></g></g></g><switch><g requiredFeatures="http://www.w3.org/TR/SVG11/feature#Extensibility"/><a transform="translate(0,-5)" xlink:href="https://www.drawio.com/doc/faq/svg-export-text-problems" target="_blank"><text text-anchor="middle" font-size="10px" x="50%" y="100%">Text is not SVG - cannot display</text></a></switch></svg>